<?xml version="1.0" encoding="UTF-8"?>
<!DOCTYPE svg PUBLIC "-//W3C//DTD SVG 1.1//EN" "http://www.w3.org/Graphics/SVG/1.1/DTD/svg11.dtd">
<svg xmlns="http://www.w3.org/2000/svg" version="1.1" width="200px" height="200px" style="shape-rendering:geometricPrecision; text-rendering:geometricPrecision; image-rendering:optimizeQuality; fill-rule:evenodd; clip-rule:evenodd" xmlns:xlink="http://www.w3.org/1999/xlink">
<g><path style="opacity:1" fill="#edeff1" d="M -0.5,-0.5 C 66.1667,-0.5 132.833,-0.5 199.5,-0.5C 199.5,66.1667 199.5,132.833 199.5,199.5C 132.833,199.5 66.1667,199.5 -0.5,199.5C -0.5,132.833 -0.5,66.1667 -0.5,-0.5 Z"/></g>
<g><path style="opacity:1" fill="#fe1967" d="M 87.5,16.5 C 111.546,13.9613 132.546,20.628 150.5,36.5C 146.487,39.049 142.154,39.8824 137.5,39C 122.888,28.2932 106.554,24.2932 88.5,27C 60.8164,33.2332 43.6497,50.0666 37,77.5C 34.0131,106.695 45.1798,128.528 70.5,143C 98.0378,154.438 122.871,150.272 145,130.5C 161.814,111.079 165.98,89.246 157.5,65C 158.876,61.0733 160.876,57.5733 163.5,54.5C 174.601,75.0023 175.434,96.0023 166,117.5C 154.349,140.484 135.849,154.317 110.5,159C 78.4526,162.668 53.6193,151.168 36,124.5C 18.7405,90.1382 23.9072,59.6382 51.5,33C 62.2258,24.4665 74.2258,18.9665 87.5,16.5 Z"/></g>
<g><path style="opacity:1" fill="#fe276d" d="M 104.5,32.5 C 106.26,35.7006 107.094,39.3673 107,43.5C 107.667,56.1667 107.667,68.8333 107,81.5C 89.3018,93.3633 71.4684,105.03 53.5,116.5C 51.9999,100.172 51.6666,83.8388 52.5,67.5C 70.2442,56.3057 87.5775,44.639 104.5,32.5 Z"/></g>
<g><path style="opacity:1" fill="#fe1767" d="M 162.5,37.5 C 163.978,37.238 165.311,37.5713 166.5,38.5C 160.203,51.4362 153.536,64.1029 146.5,76.5C 143.723,70.6133 141.223,64.6133 139,58.5C 133.549,55.1932 128.049,52.0265 122.5,49C 135.926,45.0907 149.259,41.2574 162.5,37.5 Z"/></g>
<g><path style="opacity:1" fill="#eeecf0" d="M 58.5,108.5 C 57.8333,106.5 57.1667,104.5 56.5,102.5C 56.0636,91.4694 56.0636,80.4694 56.5,69.5C 72.0731,60.0893 87.2398,50.0893 102,39.5C 103,52.825 103.333,66.1583 103,79.5C 88.0529,89.0527 73.2196,98.7193 58.5,108.5 Z"/></g>
<g><path style="opacity:1" fill="#fe246c" d="M 89.5,72.5 C 88.5318,70.3926 88.1984,68.0593 88.5,65.5C 90.8413,63.1712 93.5079,61.1712 96.5,59.5C 97.6517,62.1062 97.8184,64.7728 97,67.5C 94.6182,69.3887 92.1182,71.0553 89.5,72.5 Z"/></g>
<g><path style="opacity:1" fill="#fe1b68" d="M 86.5,74.5 C 87.4731,76.9479 87.8064,79.6146 87.5,82.5C 84.8614,84.1558 82.1947,85.8224 79.5,87.5C 78.6858,85.2338 78.1858,82.9005 78,80.5C 73.0828,83.3747 68.2495,86.3747 63.5,89.5C 62.3384,84.8687 62.1717,80.202 63,75.5C 68,72.1667 73,68.8333 78,65.5C 78.3333,70.1667 78.6667,74.8333 79,79.5C 81.4426,77.6991 83.9426,76.0324 86.5,74.5 Z"/></g>
<g><path style="opacity:1" fill="#f96097" d="M 88.5,65.5 C 88.1984,68.0593 88.5318,70.3926 89.5,72.5C 88.9035,75.9412 88.2368,79.2746 87.5,82.5C 87.8064,79.6146 87.4731,76.9479 86.5,74.5C 87.0885,71.3896 87.7552,68.3896 88.5,65.5 Z"/></g>
<g><path style="opacity:1" fill="#fe0f64" d="M 109.5,84.5 C 124.408,90.2879 139.075,96.6212 153.5,103.5C 135.795,115.859 117.795,127.859 99.5,139.5C 84.6741,133.283 70.0075,126.783 55.5,120C 73.7364,108.392 91.7364,96.5582 109.5,84.5 Z"/></g>
<g><path style="opacity:1" fill="#f593b9" d="M 56.5,102.5 C 57.1667,104.5 57.8333,106.5 58.5,108.5C 58.44,109.043 58.1067,109.376 57.5,109.5C 56.5258,107.257 56.1924,104.924 56.5,102.5 Z"/></g>
<g><path style="opacity:1" fill="#1c3a4c" d="M 39.5,162.5 C 40.5,162.5 41.5,162.5 42.5,162.5C 42.0362,168.732 42.7029,174.732 44.5,180.5C 43.0695,180.579 41.7362,180.246 40.5,179.5C 39.5046,173.872 39.1712,168.206 39.5,162.5 Z"/></g>
<g><path style="opacity:1" fill="#9ba9b2" d="M 24.5,164.5 C 24.5,169.5 24.5,174.5 24.5,179.5C 25.5,179.5 26.5,179.5 27.5,179.5C 26.4324,180.434 25.099,180.768 23.5,180.5C 23.1786,174.974 23.5119,169.64 24.5,164.5 Z"/></g>
<g><path style="opacity:1" fill="#1d3b4d" d="M 27.5,179.5 C 26.5,179.5 25.5,179.5 24.5,179.5C 24.5,174.5 24.5,169.5 24.5,164.5C 28.5929,162.968 32.4263,163.635 36,166.5C 36.6635,172.667 33.8302,175.334 27.5,174.5C 27.5,176.167 27.5,177.833 27.5,179.5 Z"/></g>
<g><path style="opacity:1" fill="#2c4759" d="M 78.5,163.5 C 79.9778,163.238 81.3112,163.571 82.5,164.5C 85.114,170.952 87.114,170.618 88.5,163.5C 89.9778,163.238 91.3112,163.571 92.5,164.5C 91.2533,167.329 89.7533,169.995 88,172.5C 87.5026,175.146 87.3359,177.813 87.5,180.5C 86.1667,180.5 84.8333,180.5 83.5,180.5C 83.6641,177.813 83.4974,175.146 83,172.5C 80.9617,169.757 79.4617,166.757 78.5,163.5 Z"/></g>
<g><path style="opacity:1" fill="#234052" d="M 136.5,163.5 C 147.232,161.734 151.732,166.067 150,176.5C 146.295,180.267 141.962,181.267 137,179.5C 136.501,174.177 136.334,168.844 136.5,163.5 Z"/></g>
<g><path style="opacity:1" fill="#dadfe3" d="M 27.5,166.5 C 31.6759,165.831 33.0093,167.331 31.5,171C 30.2068,171.49 28.8734,171.657 27.5,171.5C 27.5,169.833 27.5,168.167 27.5,166.5 Z"/></g>
<g><path style="opacity:1" fill="#dee3e6" d="M 140.5,166.5 C 147.297,167.107 148.964,170.274 145.5,176C 143.975,177.009 142.308,177.509 140.5,177.5C 140.5,173.833 140.5,170.167 140.5,166.5 Z"/></g>
<g><path style="opacity:1" fill="#1d3b4e" d="M 47.5,167.5 C 53.8191,165.833 56.8191,168.166 56.5,174.5C 56.4604,176.429 56.1271,178.262 55.5,180C 48.8201,182.134 46.1535,179.968 47.5,173.5C 55.3782,171.901 55.3782,170.901 47.5,170.5C 47.5,169.5 47.5,168.5 47.5,167.5 Z"/></g>
<g><path style="opacity:1" fill="#274355" d="M 60.5,167.5 C 69.8423,166.188 73.1757,170.188 70.5,179.5C 69.5,179.5 68.5,179.5 67.5,179.5C 67.6641,176.813 67.4974,174.146 67,171.5C 65.9887,170.663 64.8221,170.33 63.5,170.5C 63.5,173.833 63.5,177.167 63.5,180.5C 62.1667,180.5 60.8333,180.5 59.5,180.5C 59.2307,176.069 59.564,171.735 60.5,167.5 Z"/></g>
<g><path style="opacity:1" fill="#223f51" d="M 95.5,167.5 C 103.812,167.619 106.146,171.453 102.5,179C 96.723,181.611 93.3897,179.778 92.5,173.5C 92.6284,171.045 93.6284,169.045 95.5,167.5 Z"/></g>
<g><path style="opacity:1" fill="#1e3b4e" d="M 107.5,167.5 C 108.5,167.5 109.5,167.5 110.5,167.5C 110.335,170.518 110.502,173.518 111,176.5C 112.011,177.337 113.178,177.67 114.5,177.5C 114.5,174.167 114.5,170.833 114.5,167.5C 115.5,167.5 116.5,167.5 117.5,167.5C 117.666,171.514 117.499,175.514 117,179.5C 113.76,181.036 110.76,180.703 108,178.5C 107.501,174.848 107.335,171.182 107.5,167.5 Z"/></g>
<g><path style="opacity:1" fill="#1c3b4d" d="M 121.5,167.5 C 123.833,167.5 126.167,167.5 128.5,167.5C 128.5,168.5 128.5,169.5 128.5,170.5C 127.167,170.5 125.833,170.5 124.5,170.5C 124.5,173.5 124.5,176.5 124.5,179.5C 123.5,179.5 122.5,179.5 121.5,179.5C 121.5,175.5 121.5,171.5 121.5,167.5 Z"/></g>
<g><path style="opacity:1" fill="#1d3b4d" d="M 154.5,167.5 C 160.819,165.833 163.819,168.166 163.5,174.5C 163.46,176.429 163.127,178.262 162.5,180C 155.82,182.134 153.153,179.968 154.5,173.5C 162.378,171.901 162.378,170.901 154.5,170.5C 154.5,169.5 154.5,168.5 154.5,167.5 Z"/></g>
<g><path style="opacity:1" fill="#254253" d="M 165.5,167.5 C 166.833,167.5 168.167,167.5 169.5,167.5C 171.272,177.953 172.606,177.953 173.5,167.5C 174.978,167.238 176.311,167.571 177.5,168.5C 175.905,173.52 173.905,178.353 171.5,183C 169.655,184.128 167.655,184.628 165.5,184.5C 165.5,183.5 165.5,182.5 165.5,181.5C 166.833,181.5 168.167,181.5 169.5,181.5C 168.178,176.849 166.845,172.183 165.5,167.5 Z"/></g>
<g><path style="opacity:1" fill="#d6dce0" d="M 96.5,170.5 C 100.225,170.78 101.392,172.78 100,176.5C 98.4126,177.727 97.0793,177.394 96,175.5C 95.3603,173.735 95.5269,172.068 96.5,170.5 Z"/></g>
<g><path style="opacity:1" fill="#c3ccd1" d="M 50.5,174.5 C 51.5,174.5 52.5,174.5 53.5,174.5C 53.5,175.5 53.5,176.5 53.5,177.5C 50.4331,177.879 49.4331,176.879 50.5,174.5 Z"/></g>
<g><path style="opacity:1" fill="#cbd3d7" d="M 157.5,174.5 C 158.5,174.5 159.5,174.5 160.5,174.5C 160.5,175.5 160.5,176.5 160.5,177.5C 157.433,177.879 156.433,176.879 157.5,174.5 Z"/></g>
</svg>
